<svg width="1024" height="1024" viewBox="0 0 1024 1024" fill="none" xmlns="http://www.w3.org/2000/svg">
<rect width="1024" height="1024" fill="#F7BB34"/>
<g filter="url(#filter0_d_4102_18)">
<path d="M47.575 576.25V500.5H39.2C35.3667 500.5 32.325 499.417 30.075 497.25C27.825 495.083 26.7 492.125 26.7 488.375C26.7 484.708 27.825 481.833 30.075 479.75C32.325 477.583 35.3667 476.5 39.2 476.5H47.575V458.875C47.575 453.875 48.9917 449.917 51.825 447C54.6583 444.083 58.45 442.625 63.2 442.625C67.95 442.625 71.7 444.083 74.45 447C77.2833 449.917 78.7 453.875 78.7 458.875V476.5H93.075C96.9083 476.5 99.9083 477.583 102.075 479.75C104.325 481.833 105.45 484.708 105.45 488.375C105.45 492.125 104.325 495.083 102.075 497.25C99.9083 499.417 96.9083 500.5 93.075 500.5H78.7V569.5C78.7 574.417 79.6583 578.083 81.575 580.5C83.4917 582.833 86.7 584.208 91.2 584.625L93.45 584.875C97.6167 585.208 100.742 586.292 102.825 588.125C104.908 589.958 105.95 592.708 105.95 596.375C105.95 599.375 105.075 601.958 103.325 604.125C101.658 606.208 99.1583 607.792 95.825 608.875C92.575 609.875 88.5333 610.375 83.7 610.375H82.45C70.8667 610.375 62.1583 607.542 56.325 601.875C50.4917 596.125 47.575 587.583 47.575 576.25ZM149.275 611.125C140.775 611.125 133.192 609.458 126.525 606.125C119.858 602.792 114.608 598.125 110.775 592.125C106.942 586.042 105.025 579.042 105.025 571.125C105.025 559.292 109.4 549.958 118.15 543.125C126.9 536.292 139.317 532.417 155.4 531.5L190.525 529.5V520C190.525 513.083 188.317 507.708 183.9 503.875C179.483 500.042 173.442 498.125 165.775 498.125C159.692 498.125 154.525 499.292 150.275 501.625C146.025 503.958 141.942 507.958 138.025 513.625C134.775 517.792 130.567 519.875 125.4 519.875C121.567 519.875 118.4 518.75 115.9 516.5C113.483 514.167 112.275 511.125 112.275 507.375C112.275 504.542 112.983 501.708 114.4 498.875C117.733 491.208 124.15 485.125 133.65 480.625C143.233 476.042 154.358 473.75 167.025 473.75C178.025 473.75 187.567 475.583 195.65 479.25C203.817 482.833 210.108 487.917 214.525 494.5C219.025 501.083 221.275 508.833 221.275 517.75V595.875C221.275 600.875 219.858 604.75 217.025 607.5C214.192 610.167 210.567 611.5 206.15 611.5C201.9 611.5 198.4 610.25 195.65 607.75C192.983 605.25 191.525 601.708 191.275 597.125C191.275 595.625 191.275 594.083 191.275 592.5C191.275 590.917 191.275 589.375 191.275 587.875H190.65C188.067 592.625 184.608 596.75 180.275 600.25C176.025 603.75 171.233 606.458 165.9 608.375C160.567 610.208 155.025 611.125 149.275 611.125ZM158.775 587.625C164.608 587.625 169.9 586.417 174.65 584C179.483 581.583 183.317 578.292 186.15 574.125C189.067 569.875 190.525 565.125 190.525 559.875V549.75L159.775 551.625C152.275 552.125 146.442 554 142.275 557.25C138.192 560.417 136.15 564.625 136.15 569.875C136.15 575.292 138.192 579.625 142.275 582.875C146.442 586.042 151.942 587.625 158.775 587.625ZM284.725 611.625C270.725 611.625 259.017 609.167 249.6 604.25C240.183 599.333 233.892 592.917 230.725 585C229.892 582.833 229.475 580.792 229.475 578.875C229.475 575.125 230.683 572.167 233.1 570C235.6 567.75 238.725 566.625 242.475 566.625C247.558 566.625 252.058 569.167 255.975 574.25C259.475 579.25 263.475 582.958 267.975 585.375C272.475 587.708 278.433 588.875 285.85 588.875C290.767 588.875 295.017 588.25 298.6 587C302.183 585.667 304.975 583.792 306.975 581.375C308.975 578.958 309.975 576.083 309.975 572.75C309.975 568.75 308.558 565.583 305.725 563.25C302.975 560.833 298.183 558.833 291.35 557.25L269.85 552.375C256.933 549.458 247.267 544.833 240.85 538.5C234.433 532.083 231.225 524.083 231.225 514.5C231.225 502.167 236.142 492.292 245.975 484.875C255.808 477.458 268.892 473.75 285.225 473.75C293.808 473.75 301.558 475 308.475 477.5C315.392 480 321.142 483.375 325.725 487.625C330.308 491.792 333.267 496.417 334.6 501.5C335.017 503.167 335.225 504.708 335.225 506.125C335.225 509.458 334.225 512.167 332.225 514.25C330.225 516.25 327.225 517.25 323.225 517.25C320.975 517.25 318.767 516.792 316.6 515.875C314.517 514.958 312.767 513.5 311.35 511.5C308.267 506.917 304.642 503.292 300.475 500.625C296.392 497.958 291.058 496.625 284.475 496.625C277.642 496.625 272.1 498.125 267.85 501.125C263.6 504.125 261.475 508 261.475 512.75C261.475 516.583 263.017 519.833 266.1 522.5C269.183 525.167 274.142 527.292 280.975 528.875L302.1 533.5C316.1 536.667 326.1 541.042 332.1 546.625C338.183 552.125 341.225 559.792 341.225 569.625C341.225 578.125 338.85 585.542 334.1 591.875C329.35 598.125 322.725 603 314.225 606.5C305.808 609.917 295.975 611.625 284.725 611.625ZM364.55 611.5C359.967 611.5 356.217 610.083 353.3 607.25C350.383 604.417 348.925 600.375 348.925 595.125V442.5C348.925 437.25 350.383 433.208 353.3 430.375C356.217 427.542 359.967 426.125 364.55 426.125C369.05 426.125 372.758 427.542 375.675 430.375C378.592 433.208 380.05 437.25 380.05 442.5V531.25H380.425L432.425 479.875C434.425 477.708 436.342 476.167 438.175 475.25C440.008 474.333 442.133 473.875 444.55 473.875C448.467 473.875 451.717 475.167 454.3 477.75C456.883 480.333 458.175 483.5 458.175 487.25C458.175 489.583 457.758 491.583 456.925 493.25C456.175 494.917 454.717 496.75 452.55 498.75L414.8 534.5L456.3 586.375C457.967 588.625 459.092 590.583 459.675 592.25C460.258 593.833 460.55 595.625 460.55 597.625C460.55 601.708 459.175 605.042 456.425 607.625C453.675 610.208 450.133 611.5 445.8 611.5C442.717 611.5 440.133 610.875 438.05 609.625C435.967 608.375 433.8 606.125 431.55 602.875L391.8 552.5L380.05 563.5V595.125C380.05 600.375 378.592 604.417 375.675 607.25C372.758 610.083 369.05 611.5 364.55 611.5ZM476.625 576.25V500.5H468.25C464.417 500.5 461.375 499.417 459.125 497.25C456.875 495.083 455.75 492.125 455.75 488.375C455.75 484.708 456.875 481.833 459.125 479.75C461.375 477.583 464.417 476.5 468.25 476.5H476.625V458.875C476.625 453.875 478.042 449.917 480.875 447C483.708 444.083 487.5 442.625 492.25 442.625C497 442.625 500.75 444.083 503.5 447C506.333 449.917 507.75 453.875 507.75 458.875V476.5H522.125C525.958 476.5 528.958 477.583 531.125 479.75C533.375 481.833 534.5 484.708 534.5 488.375C534.5 492.125 533.375 495.083 531.125 497.25C528.958 499.417 525.958 500.5 522.125 500.5H507.75V569.5C507.75 574.417 508.708 578.083 510.625 580.5C512.542 582.833 515.75 584.208 520.25 584.625L522.5 584.875C526.667 585.208 529.792 586.292 531.875 588.125C533.958 589.958 535 592.708 535 596.375C535 599.375 534.125 601.958 532.375 604.125C530.708 606.208 528.208 607.792 524.875 608.875C521.625 609.875 517.583 610.375 512.75 610.375H511.5C499.917 610.375 491.208 607.542 485.375 601.875C479.542 596.125 476.625 587.583 476.625 576.25ZM556.7 611.5C552.033 611.5 548.283 610.083 545.45 607.25C542.617 604.333 541.2 600.292 541.2 595.125V489.625C541.2 484.708 542.575 480.875 545.325 478.125C548.075 475.292 551.658 473.875 556.075 473.875C560.408 473.875 563.95 475.292 566.7 478.125C569.45 480.875 570.825 484.708 570.825 489.625V499.75H571.45C573.283 492 576.825 485.833 582.075 481.25C587.325 476.583 593.242 474.25 599.825 474.25C602.325 474.25 604.45 474.542 606.2 475.125C608.033 475.708 609.575 476.542 610.825 477.625C612.242 478.708 613.325 480.208 614.075 482.125C614.825 484.042 615.2 486.292 615.2 488.875C615.2 493.708 613.658 497.375 610.575 499.875C609.158 501.208 607.283 502.208 604.95 502.875C602.617 503.542 599.908 503.917 596.825 504C587.908 504.083 581.575 506.667 577.825 511.75C574.158 516.75 572.325 523.292 572.325 531.375V595.125C572.325 600.292 570.867 604.333 567.95 607.25C565.117 610.083 561.367 611.5 556.7 611.5ZM652.275 611.125C643.775 611.125 636.192 609.458 629.525 606.125C622.858 602.792 617.608 598.125 613.775 592.125C609.942 586.042 608.025 579.042 608.025 571.125C608.025 559.292 612.4 549.958 621.15 543.125C629.9 536.292 642.317 532.417 658.4 531.5L693.525 529.5V520C693.525 513.083 691.317 507.708 686.9 503.875C682.483 500.042 676.442 498.125 668.775 498.125C662.692 498.125 657.525 499.292 653.275 501.625C649.025 503.958 644.942 507.958 641.025 513.625C637.775 517.792 633.567 519.875 628.4 519.875C624.567 519.875 621.4 518.75 618.9 516.5C616.483 514.167 615.275 511.125 615.275 507.375C615.275 504.542 615.983 501.708 617.4 498.875C620.733 491.208 627.15 485.125 636.65 480.625C646.233 476.042 657.358 473.75 670.025 473.75C681.025 473.75 690.567 475.583 698.65 479.25C706.817 482.833 713.108 487.917 717.525 494.5C722.025 501.083 724.275 508.833 724.275 517.75V595.875C724.275 600.875 722.858 604.75 720.025 607.5C717.192 610.167 713.567 611.5 709.15 611.5C704.9 611.5 701.4 610.25 698.65 607.75C695.983 605.25 694.525 601.708 694.275 597.125C694.275 595.625 694.275 594.083 694.275 592.5C694.275 590.917 694.275 589.375 694.275 587.875H693.65C691.067 592.625 687.608 596.75 683.275 600.25C679.025 603.75 674.233 606.458 668.9 608.375C663.567 610.208 658.025 611.125 652.275 611.125ZM661.775 587.625C667.608 587.625 672.9 586.417 677.65 584C682.483 581.583 686.317 578.292 689.15 574.125C692.067 569.875 693.525 565.125 693.525 559.875V549.75L662.775 551.625C655.275 552.125 649.442 554 645.275 557.25C641.192 560.417 639.15 564.625 639.15 569.875C639.15 575.292 641.192 579.625 645.275 582.875C649.442 586.042 654.942 587.625 661.775 587.625ZM786.1 611.125C775.017 611.125 765.35 608.333 757.1 602.75C748.85 597.167 742.433 589.25 737.85 579C733.35 568.75 731.1 556.625 731.1 542.625C731.1 528.625 733.35 516.542 737.85 506.375C742.433 496.125 748.85 488.208 757.1 482.625C765.35 477.042 775.017 474.25 786.1 474.25C792.517 474.25 798.35 475.292 803.6 477.375C808.933 479.375 813.6 482.25 817.6 486C821.683 489.667 824.85 493.917 827.1 498.75H827.85V442.5C827.85 437.25 829.308 433.208 832.225 430.375C835.142 427.542 838.85 426.125 843.35 426.125C847.933 426.125 851.683 427.542 854.6 430.375C857.517 433.208 858.975 437.25 858.975 442.5V595.875C858.975 600.875 857.517 604.75 854.6 607.5C851.767 610.167 848.1 611.5 843.6 611.5C839.1 611.5 835.35 610.167 832.35 607.5C829.35 604.75 827.85 600.875 827.85 595.875V585.5H827.225C825.142 590.583 822.183 595.083 818.35 599C814.517 602.833 809.892 605.833 804.475 608C799.058 610.083 792.933 611.125 786.1 611.125ZM795.475 585.625C802.058 585.625 807.767 583.875 812.6 580.375C817.433 576.875 821.183 571.917 823.85 565.5C826.6 559 827.975 551.417 827.975 542.75C827.975 534.083 826.6 526.542 823.85 520.125C821.183 513.708 817.433 508.75 812.6 505.25C807.767 501.667 802.058 499.875 795.475 499.875C788.808 499.875 783.017 501.625 778.1 505.125C773.267 508.625 769.517 513.583 766.85 520C764.267 526.417 762.975 534 762.975 542.75C762.975 551.5 764.267 559.083 766.85 565.5C769.517 571.917 773.267 576.875 778.1 580.375C783.017 583.875 788.808 585.625 795.475 585.625ZM931.175 611.625C910.925 611.625 895.133 605.625 883.8 593.625C872.467 581.542 866.8 564.75 866.8 543.25C866.8 529.167 869.342 516.917 874.425 506.5C879.592 496.083 886.883 488.042 896.3 482.375C905.717 476.625 916.758 473.75 929.425 473.75C941.508 473.75 952.133 476.417 961.3 481.75C970.467 487 977.592 494.25 982.675 503.5C987.842 512.75 990.425 523.417 990.425 535.5C990.425 540.167 989.175 543.792 986.675 546.375C984.175 548.958 980.592 550.25 975.925 550.25H897.8C897.8 550.417 897.8 550.583 897.8 550.75C897.8 550.917 897.8 551.083 897.8 551.25C897.8 562.333 900.8 571.167 906.8 577.75C912.8 584.333 920.842 587.625 930.925 587.625C937.925 587.625 943.925 586.292 948.925 583.625C954.008 580.875 959.05 576.333 964.05 570C965.633 568.167 967.217 566.875 968.8 566.125C970.467 565.375 972.383 565 974.55 565C978.05 565 981.008 566.083 983.425 568.25C985.842 570.333 987.05 573.25 987.05 577C987.05 579.333 986.342 581.958 984.925 584.875C980.592 593.375 973.717 599.958 964.3 604.625C954.883 609.292 943.842 611.625 931.175 611.625ZM898.05 529.75H959.925C959.758 523.333 958.342 517.75 955.675 513C953.008 508.167 949.425 504.458 944.925 501.875C940.508 499.208 935.383 497.875 929.55 497.875C923.717 497.875 918.508 499.208 913.925 501.875C909.342 504.542 905.675 508.292 902.925 513.125C900.175 517.875 898.55 523.417 898.05 529.75Z" fill="black"/>
</g>
<defs>
<filter id="filter0_d_4102_18" x="22.7" y="426.125" width="971.725" height="193.5" filterUnits="userSpaceOnUse" color-interpolation-filters="sRGB">
<feFlood flood-opacity="0" result="BackgroundImageFix"/>
<feColorMatrix in="SourceAlpha" type="matrix" values="0 0 0 0 0 0 0 0 0 0 0 0 0 0 0 0 0 0 127 0" result="hardAlpha"/>
<feOffset dy="4"/>
<feGaussianBlur stdDeviation="2"/>
<feComposite in2="hardAlpha" operator="out"/>
<feColorMatrix type="matrix" values="0 0 0 0 0 0 0 0 0 0 0 0 0 0 0 0 0 0 0.25 0"/>
<feBlend mode="normal" in2="BackgroundImageFix" result="effect1_dropShadow_4102_18"/>
<feBlend mode="normal" in="SourceGraphic" in2="effect1_dropShadow_4102_18" result="shape"/>
</filter>
</defs>
</svg>
