<svg width="973" height="194" viewBox="0 0 973 194" fill="none" xmlns="http://www.w3.org/2000/svg">
<g filter="url(#filter0_d_4111_8)">
<path d="M25.575 150.25V74.5H17.2C13.3667 74.5 10.325 73.4167 8.07501 71.25C5.82501 69.0833 4.70001 66.125 4.70001 62.375C4.70001 58.7083 5.82501 55.8333 8.07501 53.75C10.325 51.5833 13.3667 50.5 17.2 50.5H25.575V32.875C25.575 27.875 26.9917 23.9167 29.825 21C32.6583 18.0833 36.45 16.625 41.2 16.625C45.95 16.625 49.7 18.0833 52.45 21C55.2833 23.9167 56.7 27.875 56.7 32.875V50.5H71.075C74.9083 50.5 77.9083 51.5833 80.075 53.75C82.325 55.8333 83.45 58.7083 83.45 62.375C83.45 66.125 82.325 69.0833 80.075 71.25C77.9083 73.4167 74.9083 74.5 71.075 74.5H56.7V143.5C56.7 148.417 57.6583 152.083 59.575 154.5C61.4917 156.833 64.7 158.208 69.2 158.625L71.45 158.875C75.6167 159.208 78.7417 160.292 80.825 162.125C82.9083 163.958 83.95 166.708 83.95 170.375C83.95 173.375 83.075 175.958 81.325 178.125C79.6583 180.208 77.1583 181.792 73.825 182.875C70.575 183.875 66.5333 184.375 61.7 184.375H60.45C48.8667 184.375 40.1583 181.542 34.325 175.875C28.4917 170.125 25.575 161.583 25.575 150.25ZM127.275 185.125C118.775 185.125 111.192 183.458 104.525 180.125C97.8583 176.792 92.6083 172.125 88.775 166.125C84.9417 160.042 83.025 153.042 83.025 145.125C83.025 133.292 87.4 123.958 96.15 117.125C104.9 110.292 117.317 106.417 133.4 105.5L168.525 103.5V94C168.525 87.0833 166.317 81.7083 161.9 77.875C157.483 74.0417 151.442 72.125 143.775 72.125C137.692 72.125 132.525 73.2917 128.275 75.625C124.025 77.9583 119.942 81.9583 116.025 87.625C112.775 91.7917 108.567 93.875 103.4 93.875C99.5667 93.875 96.4 92.75 93.9 90.5C91.4833 88.1667 90.275 85.125 90.275 81.375C90.275 78.5417 90.9833 75.7083 92.4 72.875C95.7333 65.2083 102.15 59.125 111.65 54.625C121.233 50.0417 132.358 47.75 145.025 47.75C156.025 47.75 165.567 49.5833 173.65 53.25C181.817 56.8333 188.108 61.9167 192.525 68.5C197.025 75.0833 199.275 82.8333 199.275 91.75V169.875C199.275 174.875 197.858 178.75 195.025 181.5C192.192 184.167 188.567 185.5 184.15 185.5C179.9 185.5 176.4 184.25 173.65 181.75C170.983 179.25 169.525 175.708 169.275 171.125C169.275 169.625 169.275 168.083 169.275 166.5C169.275 164.917 169.275 163.375 169.275 161.875H168.65C166.067 166.625 162.608 170.75 158.275 174.25C154.025 177.75 149.233 180.458 143.9 182.375C138.567 184.208 133.025 185.125 127.275 185.125ZM136.775 161.625C142.608 161.625 147.9 160.417 152.65 158C157.483 155.583 161.317 152.292 164.15 148.125C167.067 143.875 168.525 139.125 168.525 133.875V123.75L137.775 125.625C130.275 126.125 124.442 128 120.275 131.25C116.192 134.417 114.15 138.625 114.15 143.875C114.15 149.292 116.192 153.625 120.275 156.875C124.442 160.042 129.942 161.625 136.775 161.625ZM262.725 185.625C248.725 185.625 237.017 183.167 227.6 178.25C218.183 173.333 211.892 166.917 208.725 159C207.892 156.833 207.475 154.792 207.475 152.875C207.475 149.125 208.683 146.167 211.1 144C213.6 141.75 216.725 140.625 220.475 140.625C225.558 140.625 230.058 143.167 233.975 148.25C237.475 153.25 241.475 156.958 245.975 159.375C250.475 161.708 256.433 162.875 263.85 162.875C268.767 162.875 273.017 162.25 276.6 161C280.183 159.667 282.975 157.792 284.975 155.375C286.975 152.958 287.975 150.083 287.975 146.75C287.975 142.75 286.558 139.583 283.725 137.25C280.975 134.833 276.183 132.833 269.35 131.25L247.85 126.375C234.933 123.458 225.267 118.833 218.85 112.5C212.433 106.083 209.225 98.0833 209.225 88.5C209.225 76.1667 214.142 66.2917 223.975 58.875C233.808 51.4583 246.892 47.75 263.225 47.75C271.808 47.75 279.558 49 286.475 51.5C293.392 54 299.142 57.375 303.725 61.625C308.308 65.7917 311.267 70.4167 312.6 75.5C313.017 77.1667 313.225 78.7083 313.225 80.125C313.225 83.4583 312.225 86.1667 310.225 88.25C308.225 90.25 305.225 91.25 301.225 91.25C298.975 91.25 296.767 90.7917 294.6 89.875C292.517 88.9583 290.767 87.5 289.35 85.5C286.267 80.9167 282.642 77.2917 278.475 74.625C274.392 71.9583 269.058 70.625 262.475 70.625C255.642 70.625 250.1 72.125 245.85 75.125C241.6 78.125 239.475 82 239.475 86.75C239.475 90.5833 241.017 93.8333 244.1 96.5C247.183 99.1667 252.142 101.292 258.975 102.875L280.1 107.5C294.1 110.667 304.1 115.042 310.1 120.625C316.183 126.125 319.225 133.792 319.225 143.625C319.225 152.125 316.85 159.542 312.1 165.875C307.35 172.125 300.725 177 292.225 180.5C283.808 183.917 273.975 185.625 262.725 185.625ZM342.55 185.5C337.967 185.5 334.217 184.083 331.3 181.25C328.383 178.417 326.925 174.375 326.925 169.125V16.5C326.925 11.25 328.383 7.20833 331.3 4.375C334.217 1.54167 337.967 0.125 342.55 0.125C347.05 0.125 350.758 1.54167 353.675 4.375C356.592 7.20833 358.05 11.25 358.05 16.5V105.25H358.425L410.425 53.875C412.425 51.7083 414.342 50.1667 416.175 49.25C418.008 48.3333 420.133 47.875 422.55 47.875C426.467 47.875 429.717 49.1667 432.3 51.75C434.883 54.3333 436.175 57.5 436.175 61.25C436.175 63.5833 435.758 65.5833 434.925 67.25C434.175 68.9167 432.717 70.75 430.55 72.75L392.8 108.5L434.3 160.375C435.967 162.625 437.092 164.583 437.675 166.25C438.258 167.833 438.55 169.625 438.55 171.625C438.55 175.708 437.175 179.042 434.425 181.625C431.675 184.208 428.133 185.5 423.8 185.5C420.717 185.5 418.133 184.875 416.05 183.625C413.967 182.375 411.8 180.125 409.55 176.875L369.8 126.5L358.05 137.5V169.125C358.05 174.375 356.592 178.417 353.675 181.25C350.758 184.083 347.05 185.5 342.55 185.5ZM454.625 150.25V74.5H446.25C442.417 74.5 439.375 73.4167 437.125 71.25C434.875 69.0833 433.75 66.125 433.75 62.375C433.75 58.7083 434.875 55.8333 437.125 53.75C439.375 51.5833 442.417 50.5 446.25 50.5H454.625V32.875C454.625 27.875 456.042 23.9167 458.875 21C461.708 18.0833 465.5 16.625 470.25 16.625C475 16.625 478.75 18.0833 481.5 21C484.333 23.9167 485.75 27.875 485.75 32.875V50.5H500.125C503.958 50.5 506.958 51.5833 509.125 53.75C511.375 55.8333 512.5 58.7083 512.5 62.375C512.5 66.125 511.375 69.0833 509.125 71.25C506.958 73.4167 503.958 74.5 500.125 74.5H485.75V143.5C485.75 148.417 486.708 152.083 488.625 154.5C490.542 156.833 493.75 158.208 498.25 158.625L500.5 158.875C504.667 159.208 507.792 160.292 509.875 162.125C511.958 163.958 513 166.708 513 170.375C513 173.375 512.125 175.958 510.375 178.125C508.708 180.208 506.208 181.792 502.875 182.875C499.625 183.875 495.583 184.375 490.75 184.375H489.5C477.917 184.375 469.208 181.542 463.375 175.875C457.542 170.125 454.625 161.583 454.625 150.25ZM534.7 185.5C530.033 185.5 526.283 184.083 523.45 181.25C520.617 178.333 519.2 174.292 519.2 169.125V63.625C519.2 58.7083 520.575 54.875 523.325 52.125C526.075 49.2917 529.658 47.875 534.075 47.875C538.408 47.875 541.95 49.2917 544.7 52.125C547.45 54.875 548.825 58.7083 548.825 63.625V73.75H549.45C551.283 66 554.825 59.8333 560.075 55.25C565.325 50.5833 571.242 48.25 577.825 48.25C580.325 48.25 582.45 48.5417 584.2 49.125C586.033 49.7083 587.575 50.5417 588.825 51.625C590.242 52.7083 591.325 54.2083 592.075 56.125C592.825 58.0417 593.2 60.2917 593.2 62.875C593.2 67.7083 591.658 71.375 588.575 73.875C587.158 75.2083 585.283 76.2083 582.95 76.875C580.617 77.5417 577.908 77.9167 574.825 78C565.908 78.0833 559.575 80.6667 555.825 85.75C552.158 90.75 550.325 97.2917 550.325 105.375V169.125C550.325 174.292 548.867 178.333 545.95 181.25C543.117 184.083 539.367 185.5 534.7 185.5ZM630.275 185.125C621.775 185.125 614.192 183.458 607.525 180.125C600.858 176.792 595.608 172.125 591.775 166.125C587.942 160.042 586.025 153.042 586.025 145.125C586.025 133.292 590.4 123.958 599.15 117.125C607.9 110.292 620.317 106.417 636.4 105.5L671.525 103.5V94C671.525 87.0833 669.317 81.7083 664.9 77.875C660.483 74.0417 654.442 72.125 646.775 72.125C640.692 72.125 635.525 73.2917 631.275 75.625C627.025 77.9583 622.942 81.9583 619.025 87.625C615.775 91.7917 611.567 93.875 606.4 93.875C602.567 93.875 599.4 92.75 596.9 90.5C594.483 88.1667 593.275 85.125 593.275 81.375C593.275 78.5417 593.983 75.7083 595.4 72.875C598.733 65.2083 605.15 59.125 614.65 54.625C624.233 50.0417 635.358 47.75 648.025 47.75C659.025 47.75 668.567 49.5833 676.65 53.25C684.817 56.8333 691.108 61.9167 695.525 68.5C700.025 75.0833 702.275 82.8333 702.275 91.75V169.875C702.275 174.875 700.858 178.75 698.025 181.5C695.192 184.167 691.567 185.5 687.15 185.5C682.9 185.5 679.4 184.25 676.65 181.75C673.983 179.25 672.525 175.708 672.275 171.125C672.275 169.625 672.275 168.083 672.275 166.5C672.275 164.917 672.275 163.375 672.275 161.875H671.65C669.067 166.625 665.608 170.75 661.275 174.25C657.025 177.75 652.233 180.458 646.9 182.375C641.567 184.208 636.025 185.125 630.275 185.125ZM639.775 161.625C645.608 161.625 650.9 160.417 655.65 158C660.483 155.583 664.317 152.292 667.15 148.125C670.067 143.875 671.525 139.125 671.525 133.875V123.75L640.775 125.625C633.275 126.125 627.442 128 623.275 131.25C619.192 134.417 617.15 138.625 617.15 143.875C617.15 149.292 619.192 153.625 623.275 156.875C627.442 160.042 632.942 161.625 639.775 161.625ZM764.1 185.125C753.017 185.125 743.35 182.333 735.1 176.75C726.85 171.167 720.433 163.25 715.85 153C711.35 142.75 709.1 130.625 709.1 116.625C709.1 102.625 711.35 90.5417 715.85 80.375C720.433 70.125 726.85 62.2083 735.1 56.625C743.35 51.0417 753.017 48.25 764.1 48.25C770.517 48.25 776.35 49.2917 781.6 51.375C786.933 53.375 791.6 56.25 795.6 60C799.683 63.6667 802.85 67.9167 805.1 72.75H805.85V16.5C805.85 11.25 807.308 7.20833 810.225 4.375C813.142 1.54167 816.85 0.125 821.35 0.125C825.933 0.125 829.683 1.54167 832.6 4.375C835.517 7.20833 836.975 11.25 836.975 16.5V169.875C836.975 174.875 835.517 178.75 832.6 181.5C829.767 184.167 826.1 185.5 821.6 185.5C817.1 185.5 813.35 184.167 810.35 181.5C807.35 178.75 805.85 174.875 805.85 169.875V159.5H805.225C803.142 164.583 800.183 169.083 796.35 173C792.517 176.833 787.892 179.833 782.475 182C777.058 184.083 770.933 185.125 764.1 185.125ZM773.475 159.625C780.058 159.625 785.767 157.875 790.6 154.375C795.433 150.875 799.183 145.917 801.85 139.5C804.6 133 805.975 125.417 805.975 116.75C805.975 108.083 804.6 100.542 801.85 94.125C799.183 87.7083 795.433 82.75 790.6 79.25C785.767 75.6667 780.058 73.875 773.475 73.875C766.808 73.875 761.017 75.625 756.1 79.125C751.267 82.625 747.517 87.5833 744.85 94C742.267 100.417 740.975 108 740.975 116.75C740.975 125.5 742.267 133.083 744.85 139.5C747.517 145.917 751.267 150.875 756.1 154.375C761.017 157.875 766.808 159.625 773.475 159.625ZM909.175 185.625C888.925 185.625 873.133 179.625 861.8 167.625C850.467 155.542 844.8 138.75 844.8 117.25C844.8 103.167 847.342 90.9167 852.425 80.5C857.592 70.0833 864.883 62.0417 874.3 56.375C883.717 50.625 894.758 47.75 907.425 47.75C919.508 47.75 930.133 50.4167 939.3 55.75C948.467 61 955.592 68.25 960.675 77.5C965.842 86.75 968.425 97.4167 968.425 109.5C968.425 114.167 967.175 117.792 964.675 120.375C962.175 122.958 958.592 124.25 953.925 124.25H875.8C875.8 124.417 875.8 124.583 875.8 124.75C875.8 124.917 875.8 125.083 875.8 125.25C875.8 136.333 878.8 145.167 884.8 151.75C890.8 158.333 898.842 161.625 908.925 161.625C915.925 161.625 921.925 160.292 926.925 157.625C932.008 154.875 937.05 150.333 942.05 144C943.633 142.167 945.217 140.875 946.8 140.125C948.467 139.375 950.383 139 952.55 139C956.05 139 959.008 140.083 961.425 142.25C963.842 144.333 965.05 147.25 965.05 151C965.05 153.333 964.342 155.958 962.925 158.875C958.592 167.375 951.717 173.958 942.3 178.625C932.883 183.292 921.842 185.625 909.175 185.625ZM876.05 103.75H937.925C937.758 97.3333 936.342 91.75 933.675 87C931.008 82.1667 927.425 78.4583 922.925 75.875C918.508 73.2083 913.383 71.875 907.55 71.875C901.717 71.875 896.508 73.2083 891.925 75.875C887.342 78.5417 883.675 82.2917 880.925 87.125C878.175 91.875 876.55 97.4167 876.05 103.75Z" fill="#FFD119"/>
</g>
<defs>
<filter id="filter0_d_4111_8" x="0.699951" y="0.125" width="971.725" height="193.5" filterUnits="userSpaceOnUse" color-interpolation-filters="sRGB">
<feFlood flood-opacity="0" result="BackgroundImageFix"/>
<feColorMatrix in="SourceAlpha" type="matrix" values="0 0 0 0 0 0 0 0 0 0 0 0 0 0 0 0 0 0 127 0" result="hardAlpha"/>
<feOffset dy="4"/>
<feGaussianBlur stdDeviation="2"/>
<feComposite in2="hardAlpha" operator="out"/>
<feColorMatrix type="matrix" values="0 0 0 0 0 0 0 0 0 0 0 0 0 0 0 0 0 0 0.25 0"/>
<feBlend mode="normal" in2="BackgroundImageFix" result="effect1_dropShadow_4111_8"/>
<feBlend mode="normal" in="SourceGraphic" in2="effect1_dropShadow_4111_8" result="shape"/>
</filter>
</defs>
</svg>
